<svg xmlns="http://www.w3.org/2000/svg" width="24" height="24" viewBox="0 0 24 24" fill="none"><path d="M22.6013 2.21042C22.6011 1.76194 22.2374 1.39846 21.7889 1.39846H18.406V0.812444C18.406 0.363798 18.0422 0 17.5936 0H6.40601C5.95736 0 5.59356 0.363798 5.59356 0.812444V1.39846H2.2107C1.76221 1.39846 1.39849 1.76194 1.39825 2.21042C1.39825 2.21042 1.39647 5.35822 1.39825 6.4076C1.39962 7.20986 1.40156 8.42238 2.04746 9.48275C2.73013 10.6037 3.93781 11.2413 5.64302 11.3834C5.93393 13.7619 7.53239 15.7408 9.69635 16.5777L8.53684 22.3751H6.40601C5.95736 22.3751 5.59356 22.7389 5.59356 23.1876C5.59356 23.6362 5.95736 24 6.40601 24H17.5936C18.0422 24 18.406 23.6362 18.406 23.1876C18.406 22.7389 18.0422 22.3751 17.5936 22.3751H15.4627L14.3032 16.5777C16.4672 15.7407 18.0656 13.7619 18.3566 11.3834C20.0618 11.2413 21.2694 10.6037 21.9521 9.48275C22.598 8.42238 22.6 7.20986 22.6013 6.4076C22.6031 5.35822 22.6013 2.21042 22.6013 2.21042ZM5.59356 9.74699C3.02872 9.46255 3.02532 7.78044 3.02314 6.40485C3.02193 5.696 3.02233 4.02901 3.02274 3.02327H5.59356V9.74699ZM10.1939 22.3751L11.2757 16.9657C11.5136 16.9926 11.7549 17.0078 11.9998 17.0078C12.2447 17.0078 12.486 16.9926 12.7238 16.9657L13.8057 22.3751H10.1939ZM16.7811 10.6015C16.7811 13.238 14.6362 15.3829 11.9998 15.3829C9.36334 15.3829 7.21845 13.238 7.21845 10.6015V1.62489H16.7811V10.6015ZM20.9764 6.40485C20.9742 7.78036 20.9709 9.46255 18.406 9.74699V3.02335H20.9768C20.9772 4.02901 20.9776 5.69608 20.9764 6.40485Z" fill="currentColor"></path><path d="M9.82526 8.7715L9.57484 10.4207C9.53831 10.6609 9.63884 10.9014 9.83536 11.0441C10.0319 11.1869 10.2916 11.2081 10.5087 11.0993L12 10.3515L13.4912 11.0994C13.5833 11.1456 13.683 11.1683 13.7824 11.1683C13.9173 11.1683 14.0514 11.1264 14.1646 11.0441C14.3611 10.9014 14.4616 10.661 14.4251 10.4208L14.1747 8.77158L15.3467 7.58443C15.5174 7.41166 15.5773 7.158 15.5023 6.92697C15.4272 6.69594 15.2295 6.526 14.9899 6.48649L13.344 6.21505L12.5772 4.73352C12.4656 4.51776 12.243 4.38232 12 4.38232C11.757 4.38232 11.5344 4.51776 11.4228 4.73352L10.6559 6.21505L9.01007 6.48649C8.77039 6.526 8.57274 6.69594 8.49767 6.92689C8.42259 7.15792 8.48255 7.41158 8.65322 7.58435L9.82526 8.7715ZM11.1891 7.44455C11.3915 7.41117 11.5663 7.28422 11.6605 7.102L12 6.44616L12.3394 7.102C12.4337 7.28414 12.6085 7.41109 12.8109 7.44455L13.5394 7.56463L13.0206 8.0902C12.8765 8.23614 12.8097 8.44164 12.8405 8.64439L12.9514 9.37441L12.2913 9.04342C12.1996 8.99752 12.0998 8.97449 12 8.97449C11.9002 8.97449 11.8003 8.99752 11.7087 9.04342L11.0485 9.37441L11.1594 8.64439C11.1902 8.44156 11.1234 8.23606 10.9794 8.0902L10.4606 7.56463L11.1891 7.44455Z" fill="currentColor"></path></svg>