<svg xmlns="http://www.w3.org/2000/svg" width="24" height="24" viewBox="0 0 24 24" fill="none"><g clip-path="url(#clip0_61_8120)"><path d="M20.5531 9.04963L16.5652 3.06765L17.299 1.08356C17.404 0.799605 17.3407 0.480737 17.1353 0.258434C16.9298 0.0362114 16.6168 -0.0520311 16.3255 0.0303932L12.5298 1.10393C12.0771 1.09997 10.6622 1.15492 9.10899 1.86643C7.4024 2.64825 5.19036 4.39395 4.3443 8.27047C3.22568 13.3957 4.25954 17.3538 4.95941 19.2296H4.68903C4.3001 19.2296 3.96677 19.5079 3.89743 19.8906L3.32442 23.0521C3.28192 23.2866 3.3456 23.5281 3.49848 23.7111C3.65137 23.8941 3.87756 24 4.11602 24H18.4611C18.7226 24 18.9679 23.8729 19.1185 23.6592C19.2693 23.4456 19.3066 23.1719 19.2189 22.9257L18.0926 19.7642C17.9784 19.4436 17.675 19.2297 17.3348 19.2297H16.5568L17.2911 18.4954C17.5588 18.2277 17.6036 17.8095 17.3988 17.4912C16.5736 16.2086 14.7037 13.1165 13.8005 10.9735C13.9785 11.0004 14.1648 11.0117 14.3576 11.0018C14.8528 10.9758 15.3211 10.8079 15.739 10.5099L17.0641 11.3933C17.59 11.7439 18.242 11.8521 18.8527 11.6897C19.4635 11.5274 19.976 11.1102 20.2586 10.5449L20.6032 9.85577C20.7324 9.59742 20.7134 9.28979 20.5531 9.04963ZM16.7675 20.8385L17.3205 22.391H5.07941L5.36079 20.8385H16.7675ZM18.8197 9.82522C18.7151 10.0343 18.5369 10.1087 18.4399 10.1345C18.3427 10.1602 18.1511 10.1841 17.9567 10.0544L16.1148 8.82643C15.7815 8.60413 15.3352 8.66118 15.0684 8.96009C14.7058 9.36615 14.3269 9.48227 13.8396 9.33609C13.3925 9.20203 13.0481 8.90037 13.0481 8.90037C12.7994 8.67443 12.4367 8.62692 12.1382 8.78086C11.8398 8.93488 11.6683 9.25803 11.7083 9.59144C11.9579 11.6741 14.6758 16.1785 15.6982 17.8128L14.2815 19.2295H6.69687C6.15513 17.9621 4.75117 13.9522 5.91642 8.6135C7.24653 2.51969 12.3721 2.70433 12.5861 2.71403C12.6754 2.7192 12.7651 2.70934 12.8512 2.68494L15.2414 2.00898L14.9142 2.89375C14.8249 3.1352 14.8565 3.40478 14.9993 3.619L18.9556 9.55354L18.8197 9.82522Z" fill="currentColor"></path><path d="M13.8972 4.47607C13.4529 4.47607 13.0928 4.83632 13.0928 5.28052C13.0928 5.72472 13.453 6.08496 13.8972 6.08496H14.6151C15.0594 6.08496 15.4196 5.72472 15.4196 5.28052C15.4196 4.83632 15.0593 4.47607 14.6151 4.47607H13.8972Z" fill="currentColor"></path></g><defs><clipPath id="clip0_61_8120"><rect width="24" height="24" fill="white"></rect></clipPath></defs></svg>