<svg xmlns="http://www.w3.org/2000/svg" width="24" height="24" viewBox="0 0 24 24" fill="none"><g clip-path="url(#clip0_61_8109)"><path d="M23.7624 18.876L20.0451 15.1588C20.1614 15.0575 20.2653 14.9379 20.3495 14.7923C20.7287 14.137 20.4752 13.397 20.2717 12.8023C20.1952 12.5793 20.0682 12.2081 20.0813 12.0847C20.1378 11.972 20.4165 11.73 20.5845 11.5841C21.0675 11.1647 21.6687 10.6426 21.6687 9.86479C21.6687 9.08701 21.0675 8.565 20.5845 8.14552C20.4174 8.00047 20.1409 7.76031 20.0823 7.64686C20.0708 7.51401 20.1961 7.14819 20.2717 6.92734C20.4753 6.33276 20.7287 5.59264 20.3496 4.93745C19.9664 4.27523 19.1927 4.12501 18.571 4.0042C18.3467 3.96065 17.9753 3.8884 17.8669 3.81535C17.7938 3.70707 17.7216 3.33544 17.678 3.11128C17.5573 2.48954 17.407 1.71581 16.7448 1.3327C16.0895 0.953627 15.3496 1.20712 14.7548 1.41051C14.5319 1.48696 14.1622 1.61455 14.0373 1.6009C13.9245 1.54433 13.6825 1.26571 13.5366 1.09771C13.1172 0.614638 12.5951 0.0134277 11.8173 0.0134277C11.0395 0.0134277 10.5175 0.614638 10.098 1.09771C9.95298 1.26474 9.71282 1.54126 9.59937 1.59985C9.46765 1.61084 9.10078 1.48615 8.87985 1.41051C8.28519 1.2068 7.54499 0.953384 6.88996 1.33262C6.22774 1.71573 6.07752 2.48946 5.95671 3.1112C5.91316 3.33544 5.84092 3.70691 5.76786 3.81527C5.65958 3.88832 5.28795 3.96057 5.06379 4.00412C4.44205 4.12485 3.66832 4.27515 3.28521 4.93737C2.90598 5.59264 3.15947 6.33268 3.36302 6.92734C3.43947 7.15037 3.5665 7.52161 3.55341 7.64492C3.49684 7.75764 3.21822 7.99966 3.05022 8.14552C2.56715 8.565 1.96594 9.0871 1.96594 9.86487C1.96594 10.6426 2.56715 11.1647 3.05022 11.5841C3.21725 11.7292 3.49377 11.9693 3.55236 12.0828C3.56391 12.2156 3.43858 12.5815 3.36302 12.8023C3.15939 13.3969 2.90598 14.137 3.28513 14.7922C3.41733 15.0207 3.59664 15.1873 3.79955 15.3137L0.237459 18.876C0.0388338 19.0747 -0.0428629 19.3621 0.0217025 19.6357C0.086268 19.9092 0.287803 20.1296 0.554468 20.2185L2.88779 20.9964L3.77466 23.4513C3.86896 23.7123 4.09005 23.9068 4.36084 23.9672C4.41943 23.9803 4.4785 23.9866 4.53724 23.9866C4.74993 23.9866 4.9568 23.9028 5.11057 23.7491L10.1586 18.7012C10.5678 19.1706 11.0765 19.7162 11.8175 19.7162C12.5953 19.7162 13.1173 19.115 13.5368 18.632C13.5694 18.5945 13.6069 18.5513 13.6466 18.5064L18.8894 23.7491C19.0432 23.9028 19.2501 23.9866 19.4628 23.9866C19.5214 23.9866 19.5807 23.9803 19.6392 23.9672C19.91 23.9068 20.131 23.7123 20.2254 23.4513L21.1122 20.9964L23.4455 20.2185C23.7121 20.1297 23.9137 19.9092 23.9783 19.6357C24.0429 19.3621 23.9611 19.0748 23.7624 18.876ZM4.86613 21.7001L4.2793 20.0759C4.19494 19.8425 4.00852 19.6606 3.77312 19.5823L2.31171 19.0951L5.56932 15.8375C5.65659 15.8622 5.72932 15.8882 5.76803 15.9143C5.84108 16.0226 5.91332 16.3942 5.95687 16.6184C6.0776 17.2401 6.2279 18.0139 6.89012 18.397C7.24867 18.6044 7.63242 18.6219 8.00398 18.5625L4.86613 21.7001ZM15.2802 16.7849C14.7669 16.6092 14.185 16.4099 13.6133 16.5628C13.0566 16.7116 12.6612 17.1669 12.3123 17.5687C12.1724 17.7298 11.9491 17.9869 11.8175 18.0754C11.6858 17.9869 11.4626 17.7297 11.3227 17.5686C10.9738 17.1668 10.5784 16.7116 10.0217 16.5627C9.8784 16.5244 9.73448 16.5082 9.59121 16.5082C9.1626 16.5082 8.73949 16.6531 8.35485 16.7848C8.16697 16.8492 7.87129 16.9504 7.71315 16.969C7.64826 16.8216 7.58741 16.508 7.54879 16.3091C7.446 15.7802 7.32964 15.1808 6.91558 14.7668C6.5016 14.3527 5.90217 14.2363 5.37328 14.1335C5.17441 14.0949 4.86072 14.034 4.71332 13.9692C4.73191 13.8111 4.83324 13.5154 4.89748 13.3276C5.07324 12.8144 5.27251 12.2325 5.11962 11.6606C4.97086 11.1039 4.51551 10.7085 4.11373 10.3597C3.9526 10.2198 3.69547 9.99642 3.60698 9.86487C3.69547 9.73315 3.95268 9.50988 4.11381 9.37C4.51559 9.02116 4.97086 8.62576 5.11971 8.06908C5.27251 7.49712 5.0734 6.91538 4.89756 6.40217C4.83324 6.2143 4.73199 5.91862 4.7134 5.76048C4.8608 5.69559 5.17441 5.63474 5.37328 5.59612C5.90217 5.49333 6.5016 5.37697 6.91558 4.96291C7.32972 4.54893 7.44608 3.9495 7.54887 3.42061C7.58749 3.22174 7.64842 2.90804 7.71323 2.76065C7.87137 2.77924 8.16705 2.88057 8.35485 2.94481C8.86814 3.12065 9.45012 3.31992 10.0218 3.16695C10.5785 3.01819 10.9739 2.56283 11.3228 2.16106C11.4626 1.99993 11.686 1.7428 11.8175 1.65431C11.9493 1.7428 12.1725 2.00001 12.3124 2.16114C12.6613 2.56291 13.0566 3.01819 13.6133 3.16703C14.1854 3.32 14.7671 3.12065 15.2802 2.94489C15.4681 2.88057 15.7638 2.77932 15.9219 2.76073C15.9868 2.90813 16.0477 3.22174 16.0863 3.42061C16.1891 3.9495 16.3054 4.54893 16.7195 4.96291C17.1335 5.37705 17.7329 5.49341 18.2618 5.5962C18.4607 5.63482 18.7744 5.69575 18.9218 5.76056C18.9032 5.91862 18.8018 6.21438 18.7376 6.40217C18.5618 6.91538 18.3626 7.4972 18.5155 8.06916C18.6642 8.62584 19.1196 9.02124 19.5214 9.37008C19.6825 9.50996 19.9396 9.73331 20.0281 9.86487C19.9396 9.99659 19.6824 10.2199 19.5213 10.3597C19.1195 10.7086 18.6642 11.104 18.5154 11.6607C18.3626 12.2326 18.5617 12.8144 18.7375 13.3276C18.8018 13.5154 18.9031 13.8111 18.9217 13.9693C18.7743 14.0341 18.4607 14.095 18.2618 14.1336C17.7329 14.2364 17.1335 14.3528 16.7195 14.7668C16.3054 15.1808 16.189 15.7802 16.0862 16.3091C16.0476 16.508 15.9867 16.8217 15.9219 16.9691C15.7637 16.9505 15.468 16.8493 15.2802 16.7849ZM20.2267 19.5823C19.9913 19.6606 19.8048 19.8426 19.7205 20.0759L19.1337 21.7001L16.0247 18.5911C16.2686 18.5855 16.5121 18.5317 16.7448 18.397C17.407 18.0139 17.5572 17.2401 17.678 16.6184C17.7216 16.3941 17.7938 16.0227 17.8669 15.9143C17.9454 15.8614 18.1619 15.8089 18.3605 15.7675L21.6881 19.095L20.2267 19.5823Z" fill="currentColor"></path><path d="M11.8174 3.94592C8.5537 3.94592 5.89844 6.60119 5.89844 9.86485C5.89844 13.1285 8.5537 15.7838 11.8174 15.7838C15.081 15.7838 17.7363 13.1285 17.7363 9.86485C17.7363 6.60119 15.081 3.94592 11.8174 3.94592ZM11.8174 14.1621C9.44784 14.1621 7.52009 12.2344 7.52009 9.86485C7.52009 7.49533 9.44784 5.56757 11.8174 5.56757C14.1869 5.56757 16.1146 7.49533 16.1146 9.86485C16.1146 12.2344 14.187 14.1621 11.8174 14.1621Z" fill="currentColor"></path><path d="M11.8176 6.21619C9.80571 6.21619 8.16895 7.85295 8.16895 9.86482C8.16895 11.8767 9.80571 13.5135 11.8176 13.5135C13.8295 13.5135 15.4662 11.8767 15.4662 9.86482C15.4662 7.85295 13.8295 6.21619 11.8176 6.21619ZM11.8176 12.2162C10.5211 12.2162 9.46623 11.1613 9.46623 9.86482C9.46623 8.56834 10.5211 7.51348 11.8176 7.51348C13.1141 7.51348 14.1689 8.56834 14.1689 9.86482C14.1689 11.1613 13.1141 12.2162 11.8176 12.2162Z" fill="currentColor"></path></g><defs><clipPath id="clip0_61_8109"><rect width="24" height="24" fill="white"></rect></clipPath></defs></svg>